<?xml version="1.0" standalone="no"?>
<!DOCTYPE svg PUBLIC "-//W3C//DTD SVG 20010904//EN"
 "http://www.w3.org/TR/2001/REC-SVG-20010904/DTD/svg10.dtd">
<svg version="1.0" xmlns="http://www.w3.org/2000/svg"
 width="1320.000000pt" height="1320.000000pt" viewBox="0 0 1320.000000 1320.000000"
 preserveAspectRatio="xMidYMid meet">
<metadata>
Created by potrace 1.14, written by Peter Selinger 2001-2017
</metadata>
<g transform="translate(0.000000,1320.000000) scale(0.100000,-0.100000)"
fill="#000000" stroke="none">
<path d="M5057 12643 c-2 -1 -29 -5 -62 -9 -32 -3 -68 -8 -79 -10 -12 -2 -34
-7 -49 -9 -124 -23 -277 -69 -380 -114 -26 -11 -50 -20 -52 -20 -21 1 -232
-123 -331 -194 -138 -98 -340 -292 -404 -387 -8 -12 -19 -28 -25 -34 -24 -27
-55 -76 -55 -86 0 -5 -4 -10 -10 -10 -5 0 -10 -7 -10 -15 0 -8 -4 -15 -10 -15
-5 0 -10 -7 -10 -15 0 -8 -3 -15 -8 -15 -4 0 -13 -15 -21 -32 -8 -18 -24 -46
-35 -63 -12 -16 -20 -31 -19 -32 2 -3 -37 -94 -60 -141 -9 -20 -56 -48 -92
-56 -40 -9 -335 -180 -355 -206 -3 -3 -32 -26 -64 -50 -103 -75 -285 -267
-362 -380 -20 -30 -41 -57 -45 -60 -4 -3 -13 -17 -18 -30 -12 -27 -32 -62 -42
-70 -12 -11 -108 -210 -101 -210 4 0 1 -4 -5 -8 -7 -4 -14 -17 -16 -27 -2 -11
-10 -33 -16 -50 -7 -16 -14 -38 -16 -47 -2 -9 -9 -26 -15 -37 -6 -12 -8 -21
-6 -21 3 0 -1 -18 -9 -40 -8 -22 -15 -44 -15 -48 0 -4 -5 -23 -10 -42 -5 -19
-12 -55 -15 -80 -4 -24 -8 -47 -10 -50 -3 -6 -7 -37 -20 -178 -3 -39 1 -34
-55 -62 -25 -13 -47 -25 -50 -29 -3 -3 -27 -17 -55 -31 -27 -14 -72 -42 -100
-62 -102 -75 -140 -103 -164 -123 -38 -30 -181 -175 -226 -229 -22 -26 -45
-53 -50 -59 -19 -22 -85 -117 -85 -122 0 -3 -5 -11 -10 -18 -20 -23 -70 -102
-70 -110 0 -5 -7 -15 -15 -24 -8 -8 -13 -19 -10 -24 4 -5 1 -9 -4 -9 -6 0 -10
-3 -9 -7 1 -5 -12 -36 -29 -70 -18 -35 -30 -63 -28 -63 2 0 -7 -25 -20 -55
-14 -30 -23 -55 -20 -55 2 0 -3 -17 -11 -37 -9 -20 -18 -45 -20 -55 -2 -10 -6
-27 -9 -38 -3 -11 -7 -29 -10 -40 -13 -52 -20 -87 -30 -154 -4 -21 -9 -48 -12
-60 -9 -41 -11 -392 -2 -451 5 -33 12 -80 15 -105 5 -37 30 -155 49 -230 10
-38 60 -167 93 -241 l20 -46 -71 -70 c-91 -89 -134 -136 -177 -193 -19 -25
-37 -47 -40 -50 -19 -19 -70 -90 -70 -98 0 -5 -9 -17 -20 -27 -11 -10 -20 -23
-20 -28 0 -5 -18 -38 -40 -73 -22 -35 -40 -68 -40 -73 0 -4 -7 -14 -15 -21 -9
-7 -13 -15 -10 -18 3 -3 -3 -14 -12 -25 -10 -10 -17 -21 -15 -23 1 -2 -9 -30
-24 -62 -14 -31 -27 -62 -28 -69 -1 -7 -5 -16 -9 -19 -4 -4 -7 -14 -7 -23 0
-9 -6 -28 -14 -42 -12 -24 -30 -84 -25 -84 1 0 -3 -9 -9 -21 -6 -11 -13 -32
-16 -45 -3 -13 -7 -34 -10 -46 -10 -41 -16 -68 -21 -98 -3 -16 -8 -37 -10 -45
-2 -8 -6 -35 -10 -60 -3 -25 -9 -72 -14 -105 -10 -64 -7 -420 4 -495 3 -25 11
-70 17 -100 6 -30 12 -62 13 -70 4 -32 18 -89 47 -185 16 -55 31 -104 32 -110
1 -5 9 -26 18 -46 9 -20 19 -47 23 -60 28 -89 203 -396 273 -479 12 -14 25
-30 29 -35 96 -126 349 -377 397 -394 6 -2 15 -10 19 -17 4 -8 13 -14 18 -14
6 0 17 -6 24 -12 33 -30 45 -38 55 -38 5 0 10 -4 10 -9 0 -5 10 -13 22 -17 12
-3 28 -13 36 -20 7 -8 20 -14 28 -14 18 0 22 -21 29 -155 4 -60 8 -122 10
-136 11 -86 60 -296 80 -344 7 -16 18 -48 25 -70 36 -117 159 -342 264 -485
71 -97 239 -272 316 -330 25 -19 49 -40 53 -47 4 -7 15 -13 22 -13 8 0 15 -4
15 -10 0 -5 7 -10 15 -10 8 0 15 -4 15 -10 0 -5 5 -10 10 -10 6 0 20 -8 31
-18 10 -11 32 -25 47 -33 15 -8 29 -17 32 -20 20 -24 415 -195 415 -180 0 1
14 -3 30 -9 28 -11 41 -15 90 -25 11 -3 31 -7 45 -10 46 -11 65 -15 87 -19 20
-4 113 -15 188 -21 17 -2 33 -3 36 -4 4 -1 23 -34 44 -74 45 -86 137 -228 179
-277 17 -20 43 -50 57 -68 44 -55 159 -171 208 -210 25 -20 54 -45 65 -54 11
-10 38 -30 60 -45 23 -15 43 -30 46 -33 13 -13 91 -60 100 -60 5 0 10 -4 10
-9 0 -5 17 -16 37 -25 21 -9 49 -23 63 -31 14 -8 52 -26 85 -41 33 -14 72 -33
88 -41 15 -8 27 -11 27 -7 0 3 7 1 15 -6 8 -7 15 -10 15 -6 0 4 13 0 29 -8 15
-8 39 -17 52 -19 13 -3 44 -10 69 -17 25 -7 53 -14 62 -16 10 -2 28 -6 41 -9
308 -70 698 -46 1012 62 143 50 323 139 445 220 117 79 167 118 263 210 l48
46 23 -24 c33 -34 93 -88 151 -134 27 -22 59 -48 69 -57 11 -10 24 -18 28 -18
5 0 18 -9 30 -20 12 -11 28 -20 35 -20 7 0 13 -4 13 -10 0 -5 7 -10 15 -10 8
0 15 -4 15 -8 0 -5 19 -16 43 -27 23 -10 44 -21 47 -24 6 -7 55 -31 125 -61
28 -12 61 -28 75 -35 14 -7 28 -14 33 -14 13 -2 28 -6 47 -14 22 -9 151 -46
180 -51 14 -3 36 -8 50 -11 46 -10 115 -21 215 -32 77 -9 278 -9 375 1 115 11
311 53 423 92 110 38 337 145 402 189 99 68 171 119 181 129 6 6 32 29 59 51
48 40 155 147 195 195 11 14 38 45 60 70 22 25 40 50 40 57 0 6 3 13 8 15 11
5 87 120 103 156 8 17 18 32 22 32 5 0 5 5 2 10 -3 6 -2 10 2 10 5 0 17 18 27
40 10 22 23 40 29 41 7 0 19 2 27 3 8 2 49 6 90 10 110 11 115 11 235 41 303
75 550 199 794 400 74 61 256 253 289 305 9 14 19 27 22 30 13 11 70 99 70
108 0 5 7 15 16 23 9 7 24 29 34 48 30 58 74 146 75 151 1 3 8 19 15 35 7 17
14 32 15 35 1 3 7 19 14 35 7 17 15 37 17 45 2 8 13 41 24 72 11 32 22 65 23
75 2 10 9 36 15 58 6 22 13 56 16 75 3 19 8 46 11 60 3 14 8 50 12 80 3 30 7
64 8 75 1 11 3 56 4 100 l1 81 63 37 c88 52 181 119 257 185 99 86 268 259
285 292 9 17 19 30 23 30 4 0 15 12 24 27 9 16 25 37 35 48 25 28 93 133 93
144 0 5 3 11 8 13 4 2 20 30 37 63 16 33 42 81 57 107 15 27 25 48 22 48 -3 0
3 15 14 33 12 17 21 35 22 39 1 9 8 32 17 55 3 10 7 23 9 28 1 6 12 34 22 63
11 28 19 52 16 52 -2 0 1 12 7 27 6 16 13 36 15 46 2 9 6 26 9 37 9 36 15 64
20 95 3 17 8 37 10 45 38 134 41 553 5 755 -85 474 -297 875 -643 1214 -65 64
-66 67 -51 89 8 12 12 22 8 22 -3 0 1 11 10 25 9 13 18 32 20 42 1 10 6 25 9
33 40 98 91 280 101 365 3 28 9 70 13 95 15 93 7 478 -11 531 -3 8 -8 32 -10
54 -10 80 -67 273 -89 303 -5 6 -7 12 -4 12 9 0 -58 153 -106 243 -22 42 -44
77 -49 77 -4 0 -8 6 -8 14 0 16 -122 187 -177 248 -107 119 -270 269 -299 276
-8 2 -14 8 -14 13 0 5 -6 9 -14 9 -8 0 -16 7 -20 15 -3 8 -12 15 -21 15 -8 0
-15 4 -15 9 0 5 -9 13 -20 16 -11 3 -26 12 -33 19 -7 7 -53 35 -102 61 -50 26
-93 51 -96 56 -3 5 -6 33 -8 62 -5 130 -58 368 -116 522 -77 202 -198 408
-335 568 -54 63 -191 199 -234 232 -21 17 -46 37 -56 45 -10 8 -28 22 -40 30
-12 8 -28 21 -36 28 -7 6 -15 12 -18 12 -4 0 -28 15 -54 33 -26 18 -74 46
-107 62 -33 17 -66 36 -73 43 -8 7 -18 10 -23 7 -5 -4 -9 -1 -9 6 0 7 -2 10
-6 7 -8 -9 -124 50 -124 63 0 17 -111 243 -121 247 -5 2 -9 8 -9 14 0 11 -96
158 -127 195 -10 11 -34 41 -53 64 -48 59 -194 205 -255 254 -27 22 -59 48
-69 58 -11 9 -26 17 -33 17 -7 0 -13 5 -13 10 0 6 -6 10 -14 10 -8 0 -16 3
-18 8 -5 11 -66 52 -78 52 -5 0 -10 3 -10 8 0 4 -25 18 -55 32 -30 14 -55 29
-55 33 0 5 -4 5 -10 2 -5 -3 -10 -1 -10 4 0 6 -4 11 -9 11 -5 0 -22 5 -38 12
-15 6 -30 12 -33 13 -3 1 -27 11 -53 23 -52 23 -227 80 -274 88 -15 3 -47 9
-71 15 -109 24 -169 30 -347 34 -88 1 -189 -1 -225 -6 -36 -5 -81 -11 -100
-13 -128 -17 -310 -69 -448 -127 -118 -50 -252 -120 -252 -131 0 -4 -5 -8 -11
-8 -6 0 -25 -11 -43 -25 -18 -14 -37 -25 -41 -25 -5 0 -15 -7 -24 -15 -9 -8
-43 -35 -76 -59 -33 -24 -89 -71 -123 -104 l-64 -61 -52 52 c-59 58 -143 130
-160 136 -6 2 -15 10 -19 17 -4 8 -15 14 -22 14 -8 0 -15 5 -15 10 0 6 -7 10
-15 10 -8 0 -15 5 -15 10 0 6 -7 10 -15 10 -8 0 -15 4 -15 8 0 5 -17 17 -37
28 -21 10 -40 22 -43 25 -8 10 -238 119 -260 123 -3 1 -9 4 -15 8 -10 6 -164
56 -197 64 -40 9 -64 14 -92 20 -16 2 -33 7 -36 9 -4 3 -32 7 -61 10 -30 3
-79 9 -109 14 -48 8 -356 11 -363 4z m331 -1108 c18 -2 42 -9 52 -15 11 -6 20
-8 20 -5 0 4 6 3 13 -2 6 -4 15 -8 20 -9 4 -1 9 -3 12 -4 3 -1 8 -3 13 -4 12
-3 147 -70 152 -76 3 -3 21 -17 40 -30 164 -115 289 -314 326 -520 20 -111 20
-8444 0 -8537 -7 -35 -11 -63 -9 -63 3 0 1 -6 -4 -12 -11 -14 -27 -68 -25 -80
1 -5 -2 -8 -8 -8 -6 0 -9 -3 -8 -7 2 -8 -42 -103 -52 -113 -3 -3 -18 -24 -33
-48 -41 -62 -157 -175 -223 -215 -150 -91 -276 -128 -434 -130 -99 0 -153 4
-195 17 -5 2 -23 6 -40 10 -44 11 -178 68 -193 83 -7 7 -20 13 -28 13 -8 0
-14 4 -14 9 0 5 -8 12 -18 15 -23 8 -145 126 -190 183 -54 71 -112 198 -143
321 -17 64 -46 147 -65 183 -35 66 -131 179 -153 179 -6 0 -11 5 -11 10 0 6
-6 10 -14 10 -7 0 -19 6 -25 14 -13 15 -137 63 -186 71 -58 9 -151 6 -230 -9
-113 -21 -325 -13 -375 14 -11 6 -20 8 -20 5 0 -3 -14 1 -30 10 -17 9 -30 13
-30 10 0 -3 -10 1 -23 10 -13 8 -27 12 -30 8 -4 -3 -7 -1 -7 6 0 7 -5 9 -10 6
-6 -3 -10 -1 -10 5 0 6 -5 8 -10 5 -6 -3 -10 -2 -10 4 0 5 -10 13 -22 17 -12
3 -26 10 -32 15 -139 109 -176 145 -229 223 -53 77 -99 180 -123 270 -19 77
-22 110 -20 216 2 69 7 136 10 150 18 64 21 92 19 185 0 55 -3 111 -5 125 -12
80 -95 224 -162 280 -69 58 -136 99 -166 102 -3 0 -14 7 -25 14 -11 8 -25 14
-32 14 -6 0 -24 5 -40 12 -15 6 -31 11 -35 10 -5 -1 -8 2 -8 8 0 5 -6 10 -14
10 -16 0 -73 29 -92 46 -7 6 -26 17 -43 24 -17 7 -31 16 -31 20 0 4 -11 12
-24 18 -37 17 -148 119 -198 183 -15 19 -41 51 -57 73 -51 64 -139 254 -167
361 -23 86 -27 121 -28 255 -1 170 3 206 39 325 13 44 23 82 22 85 -1 3 9 22
21 43 13 20 20 37 16 37 -4 0 0 8 9 18 10 10 14 22 10 25 -3 4 -1 7 5 7 7 0
12 6 12 14 0 8 6 21 13 28 6 7 29 39 50 71 46 71 171 197 254 256 34 25 105
68 158 96 93 50 163 100 195 139 8 10 23 26 33 35 9 8 17 19 17 23 0 5 12 26
26 47 14 22 27 45 28 53 2 7 8 25 14 39 27 67 34 198 15 289 -15 70 -67 181
-106 227 -13 15 -45 51 -70 80 -93 107 -158 226 -193 353 -18 67 -26 294 -12
355 4 17 9 39 12 50 5 23 28 85 47 130 7 17 13 33 13 37 1 4 7 15 14 25 7 10
30 45 51 78 22 33 68 87 103 120 119 114 230 173 418 220 129 33 222 80 292
150 67 66 74 75 104 133 61 118 77 251 48 412 -13 73 -12 244 1 305 10 47 41
139 59 173 9 18 14 32 11 32 -4 0 3 12 14 26 12 15 21 33 21 40 0 8 5 14 10
14 6 0 10 5 10 11 0 6 6 16 13 24 6 7 23 28 36 45 24 32 63 70 131 129 58 51
225 128 340 156 59 15 136 43 175 63 70 37 185 141 185 166 0 8 6 16 13 19 6
2 18 22 26 43 8 22 17 41 21 44 3 3 19 55 34 115 26 102 98 276 118 283 4 2 8
8 8 13 0 13 14 30 100 118 130 134 267 205 470 245 28 5 227 -1 278 -9z m2747
0 c51 -11 129 -35 158 -51 16 -7 35 -14 43 -14 8 0 14 -4 14 -10 0 -5 5 -10
11 -10 6 0 31 -13 56 -30 24 -16 47 -30 51 -30 13 0 159 -155 191 -203 52 -76
97 -184 126 -296 26 -102 56 -175 99 -235 28 -40 93 -106 104 -106 5 0 17 -10
28 -21 16 -18 57 -40 74 -40 3 0 13 -8 23 -16 9 -9 17 -13 17 -10 0 4 17 0 38
-8 20 -8 46 -16 57 -18 63 -12 119 -30 185 -60 25 -11 48 -20 53 -19 4 1 7 -3
7 -9 0 -5 4 -8 9 -5 4 3 16 -3 26 -14 10 -11 22 -20 27 -20 5 0 14 -5 21 -10
7 -6 23 -20 37 -31 139 -115 224 -242 276 -416 22 -73 27 -109 28 -213 0 -69
-3 -141 -7 -160 -7 -29 -11 -60 -19 -125 -9 -79 43 -270 84 -315 10 -11 18
-23 18 -29 0 -13 94 -111 107 -111 6 0 13 -6 16 -13 4 -10 91 -61 107 -62 3 0
11 -4 17 -8 7 -5 22 -10 33 -13 47 -10 57 -12 100 -24 25 -7 50 -13 55 -14 6
-1 15 -5 21 -8 6 -4 22 -9 36 -12 15 -2 38 -12 52 -21 14 -10 26 -13 26 -9 0
5 4 5 8 -1 4 -5 18 -16 32 -24 14 -8 34 -19 44 -25 61 -35 177 -146 223 -215
21 -31 40 -58 43 -61 6 -5 47 -99 69 -155 39 -101 51 -317 24 -430 -8 -33 -16
-67 -18 -75 -2 -8 -8 -28 -15 -45 -6 -16 -12 -32 -13 -35 -1 -3 -12 -23 -24
-45 -13 -22 -26 -48 -29 -57 -4 -10 -10 -18 -15 -18 -5 0 -9 -6 -9 -12 0 -13
-23 -42 -98 -124 -56 -62 -72 -83 -72 -94 0 -6 -4 -10 -8 -10 -8 0 -38 -61
-61 -121 -36 -97 -32 -256 10 -369 25 -68 86 -159 133 -199 10 -9 26 -23 35
-32 9 -9 32 -24 51 -35 19 -10 37 -21 40 -24 3 -3 34 -20 70 -39 36 -18 79
-44 97 -57 17 -13 34 -24 36 -24 19 0 193 -172 243 -240 101 -137 180 -332
204 -504 12 -83 9 -301 -4 -336 -3 -8 -8 -26 -10 -40 -9 -45 -14 -65 -26 -95
-6 -16 -12 -32 -12 -35 -3 -24 -24 -71 -93 -210 -5 -11 -13 -20 -17 -20 -5 0
-8 -5 -8 -11 0 -6 -10 -23 -22 -38 -13 -15 -34 -43 -48 -61 -36 -48 -94 -104
-169 -164 -101 -80 -165 -115 -344 -187 -106 -42 -140 -62 -201 -118 -48 -45
-111 -129 -121 -161 -4 -14 -11 -29 -15 -35 -7 -9 -28 -76 -36 -118 -12 -65 0
-206 25 -292 12 -43 12 -242 0 -295 -6 -25 -13 -56 -15 -69 -3 -13 -10 -34
-16 -45 -6 -12 -11 -23 -11 -26 0 -3 -3 -14 -7 -25 -4 -11 -7 -22 -7 -25 0 -3
-12 -24 -26 -47 -15 -24 -27 -47 -27 -53 0 -5 -4 -10 -10 -10 -5 0 -10 -7 -10
-15 0 -8 -3 -15 -7 -15 -5 -1 -23 -22 -42 -48 -63 -88 -214 -199 -329 -242
-124 -47 -188 -58 -315 -55 -67 1 -133 5 -147 8 -120 29 -277 17 -355 -26 -11
-6 -26 -12 -34 -13 -8 -2 -17 -6 -20 -11 -3 -4 -19 -15 -35 -23 -36 -18 -156
-138 -156 -156 0 -7 -4 -14 -8 -16 -11 -5 -64 -119 -58 -126 3 -3 1 -11 -5
-19 -6 -7 -8 -13 -5 -13 4 0 2 -8 -3 -17 -5 -10 -12 -35 -15 -56 -3 -21 -11
-47 -16 -58 -6 -10 -8 -19 -5 -19 3 0 0 -12 -8 -27 -8 -16 -25 -50 -38 -78
-13 -27 -26 -52 -29 -55 -3 -3 -17 -23 -31 -45 -38 -57 -125 -145 -192 -194
-186 -135 -444 -188 -664 -136 -13 3 -31 7 -40 9 -18 4 -105 37 -155 59 -16 7
-28 16 -28 20 0 5 -4 5 -10 2 -5 -3 -10 -2 -10 3 0 5 -12 15 -27 23 -55 28
-173 141 -222 212 -64 93 -115 215 -139 328 -11 56 -13 8467 -1 8524 14 72 15
78 21 95 3 8 14 38 24 65 39 110 95 196 189 291 126 127 270 201 453 234 49 9
235 6 287 -5z"/>
</g>
</svg>
